HIERARCHY
ROOT Hips
{
	OFFSET 182.371002 92.491722 19.190800
	CHANNELS 6 Xposition Yposition Zposition Zrotation Yrotation Xrotation 
	JOINT RightUpLeg
	{
		OFFSET 0.103461 1.857828 10.548504
		CHANNELS 3 Xrotation Yrotation Zrotation
		JOINT RightLeg
		{
			OFFSET 43.500008 -0.000031 0.000006
			CHANNELS 3 Xrotation Yrotation Zrotation
			JOINT RightFoot
			{
				OFFSET 42.372200 0.000019 -0.000010
				CHANNELS 3 Xrotation Yrotation Zrotation
				JOINT RightToe
				{
					OFFSET 17.299999 -0.000000 0.000002
					CHANNELS 3 Xrotation Yrotation Zrotation
					End Site
					{
						OFFSET 0.000000 0.000000 0.000000
					}
				}
			}
		}
	}
	JOINT LeftUpLeg
	{
		OFFSET 0.103457 1.857829 -10.548504
		CHANNELS 3 Xrotation Yrotation Zrotation
		JOINT LeftLeg
		{
			OFFSET 43.500046 -0.000019 0.000011
			CHANNELS 3 Xrotation Yrotation Zrotation
			JOINT LeftFoot
			{
				OFFSET 42.372261 0.000000 0.000008
				CHANNELS 3 Xrotation Yrotation Zrotation
				JOINT LeftToe
				{
					OFFSET 17.299990 -0.000006 0.000008
					CHANNELS 3 Xrotation Yrotation Zrotation
					End Site
					{
						OFFSET 0.000000 0.000000 0.000000
					}
				}
			}
		}
	}
	JOINT Spine
	{
		OFFSET 6.901969 -2.603727 -0.000006
		CHANNELS 3 Xrotation Yrotation Zrotation
		JOINT Spine1
		{
			OFFSET 12.588100 -0.000002 0.000002
			CHANNELS 3 Xrotation Yrotation Zrotation
			JOINT Spine2
			{
				OFFSET 12.343195 0.000004 0.000008
				CHANNELS 3 Xrotation Yrotation Zrotation
				JOINT Neck
				{
					OFFSET 25.832905 -0.000008 -0.000002
					CHANNELS 3 Xrotation Yrotation Zrotation
					JOINT Head
					{
						OFFSET 11.766608 0.000010 -0.000008
						CHANNELS 3 Xrotation Yrotation Zrotation
						End Site
						{
							OFFSET 0.000000 0.000000 0.000000
						}
					}
				}
				JOINT RightShoulder
				{
					OFFSET 19.745903 -1.480370 6.000106
					CHANNELS 3 Xrotation Yrotation Zrotation
					JOINT RightArm
					{
						OFFSET 11.284119 -0.000006 -0.000014
						CHANNELS 3 Xrotation Yrotation Zrotation
						JOINT RightForeArm
						{
							OFFSET 33.000050 0.000004 0.000026
							CHANNELS 3 Xrotation Yrotation Zrotation
							JOINT RightHand
							{
								OFFSET 25.200020 0.000017 0.000004
								CHANNELS 3 Xrotation Yrotation Zrotation
								End Site
								{
									OFFSET 0.000000 0.000000 0.000000
								}
							}
						}
					}
				}
				JOINT LeftShoulder
				{
					OFFSET 19.746099 -1.480375 -6.000082
					CHANNELS 3 Xrotation Yrotation Zrotation
					JOINT LeftArm
					{
						OFFSET 11.284140 -0.000015 -0.000008
						CHANNELS 3 Xrotation Yrotation Zrotation
						JOINT LeftForeArm
						{
							OFFSET 33.000084 0.000016 0.000002
							CHANNELS 3 Xrotation Yrotation Zrotation
							JOINT LeftHand
							{
								OFFSET 25.199783 0.000142 0.000437
								CHANNELS 3 Xrotation Yrotation Zrotation
								End Site
								{
									OFFSET 0.000000 0.000000 0.000000
								}
							}
						}
					}
				}
			}
		}
	}
}
MOTION
Frames: 14
Frame Time: 0.033333
53.484138 90.794113 478.566895 94.111968 -4.484300 -71.400994 -174.365741 -9.010684 163.267490 -42.808036 1.944921 -7.530642 76.058828 0.539151 -17.123653 21.454562 0.003113 0.000017 176.500558 -7.763097 -178.494331 -13.748331 3.996035 6.196109 81.532009 -5.557890 -5.244551 21.454551 -0.003099 -0.000000 7.681561 1.347723 -0.532461 5.339851 2.718468 -1.002801 5.021425 2.712236 -1.019213 6.719998 -6.871630 -4.172264 -29.002247 10.678576 -10.365931 166.431015 -73.015808 12.541021 -14.400936 58.052742 30.720849 -39.188992 -20.274155 1.807728 9.142299 -0.951797 85.799006 -168.116897 77.598414 13.606507 -23.823877 -61.137392 -32.082187 -28.580939 14.888759 -1.195858 -3.171359 36.632552 -1.169614 
53.023048 90.658440 476.747009 93.872501 -4.994795 -72.577030 -178.142508 -9.497901 165.318923 -51.907662 2.654268 -8.165604 72.193146 0.777915 -15.884452 21.454560 0.003110 0.000016 178.161509 -7.659104 -179.093871 -14.179591 4.235607 5.739076 82.857250 -5.190271 -5.343377 21.454555 -0.003088 -0.000001 7.876853 1.385170 -0.405678 5.733505 2.788668 -0.742791 5.415015 2.784002 -0.759630 6.639964 -7.017163 -4.048628 -29.679156 10.390703 -10.197877 165.396979 -73.095995 13.597592 -14.595935 58.158432 30.825166 -38.954365 -20.455098 1.813295 9.536894 -0.307906 86.944312 -170.761423 77.989613 10.910587 -27.215643 -59.814637 -30.633484 -29.506516 15.056390 -1.223854 -3.943652 31.993719 -1.393237 
52.528770 90.586166 474.917389 93.533874 -5.489200 -73.543939 177.583839 -9.721297 167.949106 -60.564974 2.919579 -8.587302 68.207895 1.657190 -12.632262 21.454565 0.003111 0.000016 -179.920788 -7.457204 -179.880231 -14.107116 4.371700 5.506161 83.930710 -4.968946 -5.346404 21.454553 -0.003091 0.000001 8.108877 1.410358 -0.308583 6.200100 2.835167 -0.541620 5.881585 2.831713 -0.558748 6.271494 -7.097749 -3.926843 -30.129699 10.056753 -9.988313 165.146010 -73.177786 13.850875 -15.269494 57.986359 30.560927 -38.337910 -20.456958 1.797236 9.492494 -0.126303 87.231802 -172.605232 78.345494 9.033503 -30.513788 -58.112199 -29.874568 -30.521336 15.249166 -1.255864 -6.476238 30.444974 -4.477760 
51.977291 90.376190 473.169403 93.507025 -5.797897 -74.284058 173.156716 -9.972797 170.757434 -68.014279 2.815576 -6.734718 68.944988 1.079331 -10.610444 21.454555 0.003109 0.000021 -178.521829 -7.491596 179.070894 -14.431080 4.453641 5.604986 85.150876 -4.927412 -5.177427 21.454551 -0.003097 -0.000000 8.275585 1.490498 -0.220831 6.535885 2.991059 -0.357532 6.217312 2.988713 -0.375597 6.137147 -7.276862 -3.854065 -30.821973 9.902976 -9.944957 164.770008 -73.178415 14.235914 -15.793134 57.643894 30.395599 -37.488866 -20.333128 1.767323 9.739096 -0.433187 87.573004 -174.518915 78.728251 7.087849 -32.940889 -56.259643 -30.133528 -31.791047 15.563460 -1.301693 -10.117279 31.635541 -9.345997 
51.352760 90.061546 471.530090 93.701883 -5.813795 -74.942024 168.647124 -10.263317 173.657942 -72.940273 2.551846 -1.736063 74.260460 -1.857312 -9.991523 21.454562 0.003113 0.000011 -177.809235 -7.598210 178.171686 -15.335750 4.492073 5.700653 86.555442 -4.866388 -4.964696 21.454551 -0.003094 0.000001 8.368262 1.587596 -0.121831 6.724154 3.179569 -0.151536 6.405516 3.178478 -0.170766 6.101068 -7.378133 -3.793873 -31.526579 9.841153 -9.947370 164.530064 -73.140719 14.483210 -16.066837 57.184755 30.515120 -36.459949 -20.084538 1.725413 10.132796 -1.028305 86.958492 -176.956978 79.046735 4.610098 -34.392267 -54.427011 -31.144129 -33.131410 15.976632 -1.356629 -13.837441 34.503971 -13.025225 
50.657341 89.910942 469.737396 93.472006 -5.682094 -75.843998 164.542973 -9.589902 175.800081 -74.703049 2.127538 0.676279 76.230710 -3.497429 -10.355940 21.454555 0.003106 0.000020 -176.826289 -7.111497 177.761479 -15.891065 4.506522 5.329901 87.805633 -4.538820 -4.918073 21.454550 -0.003091 0.000002 8.471889 1.551279 0.057656 6.936286 3.096355 0.208036 6.617664 3.097420 0.189306 5.920615 -7.310286 -3.821472 -32.139476 9.754147 -10.007753 163.302993 -73.128308 15.740284 -15.947385 56.741926 30.427075 -35.494693 -19.779063 1.682170 10.382296 -1.820999 86.130625 -179.020037 79.306733 2.515801 -35.067158 -53.065464 -31.446642 -34.615580 16.329469 -1.412309 -17.675365 38.572107 -16.096208 
49.981499 89.671593 467.852295 93.410446 -5.537206 -76.855959 160.911416 -8.947006 177.057587 -73.764417 1.698536 0.236036 78.019284 -2.880644 -9.960669 21.454560 0.003099 0.000020 -175.954812 -6.785799 177.403891 -16.664379 4.450629 4.899678 89.166036 -4.168297 -4.876358 21.454553 -0.003093 -0.000000 8.581575 1.523041 0.264636 7.161011 3.026867 0.623018 6.842454 3.030433 0.604696 5.482036 -7.496911 -3.903144 -32.479465 9.840446 -10.230760 162.845958 -73.263792 16.202257 -15.953785 56.343166 30.219953 -34.634568 -19.486796 1.642976 10.785513 -2.069403 85.395909 178.849460 79.665052 0.356685 -35.023270 -52.238646 -30.928695 -36.731750 16.684043 -1.484905 -20.608530 42.929764 -18.152346 
49.264339 89.477058 465.852203 93.134117 -5.395705 -77.790042 158.067571 -8.034701 177.939419 -70.129760 1.368765 -1.386687 80.418545 -1.383179 -9.550371 21.454558 0.003108 0.000020 -174.788639 -6.195801 176.958891 -17.067362 4.424046 4.536567 90.379911 -3.850087 -4.798066 21.454551 -0.003087 -0.000001 8.722725 1.435844 0.426229 7.446596 2.841367 0.944074 7.128119 2.846879 0.926888 5.055592 -7.574119 -3.909212 -33.103926 9.871120 -10.366703 162.623034 -73.434417 16.422510 -15.845981 55.905822 30.260535 -33.807599 -19.319159 1.613138 11.084901 -2.029806 84.642696 177.004899 80.070212 -1.508163 -34.779330 -51.879078 -30.085470 -39.174434 17.189713 -1.578972 -21.942075 46.923400 -18.696979 
48.494122 89.270111 463.789612 92.831191 -5.143905 -78.587030 155.959665 -7.082100 178.139475 -63.872418 1.681193 -2.760460 82.231878 -0.151968 -9.094553 21.454555 0.003110 0.000017 -173.549219 -5.490198 176.482553 -17.169117 4.448366 4.247533 91.454519 -3.581538 -4.634635 21.454553 -0.003098 0.000000 8.852335 1.329721 0.537490 7.707139 2.620791 1.162521 7.388744 2.627622 1.146651 4.517068 -7.636442 -3.893452 -33.670544 9.705860 -10.373801 162.256007 -73.670509 16.787394 -15.539794 55.519281 30.378284 -33.235417 -19.112650 1.586993 11.405000 -2.372508 83.909782 175.944594 80.522794 -2.573741 -34.513380 -51.843581 -29.021696 -41.782012 17.708170 -1.682693 -20.947280 49.257647 -17.217208 
47.680420 89.068787 461.623993 92.624462 -4.707991 -79.375008 154.680822 -6.292403 178.042118 -55.301429 2.065226 -3.621520 82.611370 0.641471 -8.409985 21.454557 0.003110 0.000016 -172.220365 -4.779302 175.950044 -16.780358 4.491460 3.997801 92.228632 -3.348513 -4.397457 21.454551 -0.003092 -0.000000 8.930558 1.229834 0.619652 7.863953 2.414821 1.321610 7.545640 2.422620 1.306989 3.905177 -7.840451 -3.868701 -34.073563 9.601660 -10.408746 162.192022 -73.671602 16.853029 -14.813967 55.009876 30.987086 -32.788866 -18.990702 1.569295 11.671715 -2.540902 83.382813 175.681591 80.656959 -2.837210 -33.929890 -51.764047 -27.992011 -44.209086 17.964740 -1.768625 -19.532172 50.043389 -15.519112 
46.844372 88.970200 459.412903 92.364648 -3.946396 -80.329950 154.179609 -5.766600 178.018116 -44.624194 1.776884 -3.680917 80.770873 0.679472 -7.980723 21.454557 0.003112 0.000017 -170.888642 -3.878490 175.249445 -15.718371 4.530013 3.823419 92.604108 -3.181478 -4.112307 21.454553 -0.003093 -0.000000 8.941106 1.091791 0.704899 7.884554 2.133119 1.482699 7.566329 2.141894 1.469788 3.109977 -8.007040 -3.776506 -34.257176 9.517170 -10.366076 161.265957 -73.686902 17.799528 -13.783307 54.839582 31.483880 -32.197778 -18.817489 1.545339 11.780397 -2.941304 82.729307 175.643710 80.702209 -2.874476 -33.540774 -51.850896 -27.202161 -45.620913 18.101758 -1.819569 -18.468481 49.592136 -14.278173 
45.998161 88.958382 457.092194 92.075062 -3.199400 -81.464964 154.816182 -5.540506 178.673651 -32.540613 0.649139 -1.992622 77.766580 -0.513503 -7.326062 21.454560 0.003113 0.000018 -169.372422 -2.905605 174.316700 -14.299098 4.539164 3.775946 92.459267 -3.118960 -3.810385 21.454553 -0.003092 0.000000 8.952270 0.943213 0.763414 7.905439 1.832180 1.589548 7.587283 1.841603 1.578461 2.287453 -8.412348 -3.522136 -34.363816 9.635721 -10.295684 161.990968 -73.611401 17.060740 -12.889549 54.707018 32.272162 -31.524803 -18.731288 1.525512 11.841714 -3.182102 82.293398 174.054107 80.839189 -4.482951 -33.153468 -52.218634 -26.418009 -46.186757 18.234351 -1.845492 -16.376446 46.172827 -12.962564 
45.117908 88.911201 454.624603 91.745949 -2.825498 -82.767945 156.219308 -5.521610 -178.944604 -21.976265 -0.827273 0.250381 75.640384 -2.413772 -8.001576 21.454557 0.003100 0.000016 -167.459696 -1.856702 173.376074 -12.909729 4.536519 3.715421 92.175049 -3.062999 -3.592129 21.454551 -0.003089 -0.000001 9.037455 0.768978 0.818934 8.073645 1.479052 1.689560 7.755577 1.489104 1.680589 1.507018 -8.420610 -3.306864 -34.475086 9.556139 -10.098002 162.287986 -73.846414 16.746217 -11.979448 55.050874 32.604086 -31.014390 -18.529352 1.501982 11.956896 -3.148301 82.155394 172.135493 80.926711 -6.425605 -33.034155 -52.683121 -25.903475 -45.620473 18.411907 -1.840060 -12.540435 40.052967 -9.912630 
44.135101 88.972893 452.113007 90.961823 -2.616696 -84.063974 157.777985 -4.850008 -175.709594 -16.151038 -2.267897 -0.848860 73.015043 -1.587086 -7.341514 21.454557 0.003103 0.000017 -165.519143 -0.201904 172.486647 -11.764261 4.682294 3.701592 91.678405 -3.045151 -3.346579 21.454553 -0.003084 0.000002 9.145016 0.488998 0.843282 8.284351 0.916476 1.719387 7.966354 0.926710 1.713812 0.975010 -8.644240 -3.072482 -34.583529 9.752049 -10.049558 161.538946 -74.218898 17.495480 -11.157741 55.784518 32.716063 -30.570889 -18.315379 1.479245 12.275897 -2.790894 81.905484 169.318614 81.208087 -9.270999 -33.119639 -53.370234 -25.292819 -44.158556 18.293014 -1.788768 -8.499284 31.905528 -6.987451 
